<svg xmlns="http://www.w3.org/2000/svg" viewBox="0 0 5.99 8.68"><defs><style>.cls-1{fill:#1d1d1b;}</style></defs><g id="Capa_2" data-name="Capa 2"><g id="Capa_1-2" data-name="Capa 1"><path class="cls-1" d="M5,.93a.74.74,0,0,1,.25.85.56.56,0,0,1,0,.12s0,0,0,.05a.71.71,0,0,1,.35.26.48.48,0,0,1,.08.16c.28,0,.24,1.09,0,1.08a1.71,1.71,0,0,1,.22.63A1.53,1.53,0,0,1,6,4.91c-.07.23,0,.34,0,.51a.9.9,0,0,1-.16.36,1.09,1.09,0,0,1-.46.36,1.93,1.93,0,0,1-.41.12,0,0,0,0,0-.05,0,1,1,0,0,1-.18.32.86.86,0,0,1-.31.26A1.14,1.14,0,0,1,4,7a2,2,0,0,1,.18.23c0,.08,0,.1,0,.17a0,0,0,0,0,0,0c.06.12.1.23.15.35a.2.2,0,0,1,0,.11c0,.07-.05.1-.12.07A2,2,0,0,1,4,7.86s0,0-.07,0a.07.07,0,0,1-.12,0,1.85,1.85,0,0,1-.28-.28s0,0-.06,0a.09.09,0,0,1-.13,0,.46.46,0,0,1-.09-.15c0-.12-.1-.23-.14-.35s0,0,0,0S3,6.93,3,6.87a3.29,3.29,0,0,0,.06.77,4.61,4.61,0,0,0,.21.75c0,.08,0,.11,0,.17a.72.72,0,0,1-.19.11s-.09,0-.11-.05a5.38,5.38,0,0,1-.2-.79,4.1,4.1,0,0,1-.06-.78l0-.37h0c-.06.17-.11.35-.17.52a1.25,1.25,0,0,1-.09.25.1.1,0,0,1-.12.08s0,0,0,0-.09.27-.15.39a.16.16,0,0,1,0,.07.08.08,0,0,1-.15,0s0,0-.05,0a3.65,3.65,0,0,0-.24.31.16.16,0,0,1-.11.07.07.07,0,0,1-.09-.09c0-.14.07-.27.11-.4s0,0,0,0,0-.08,0-.08a.08.08,0,0,1-.07-.13.42.42,0,0,1,.11-.18c.05-.08.11-.15.17-.23a0,0,0,0,0,0-.06c-.05,0,0-.1,0-.15A1.58,1.58,0,0,1,2,6.73l-.15,0a.64.64,0,0,1-.31-.2s-.05,0-.09,0A1.27,1.27,0,0,1,1,6.57a.88.88,0,0,1-.58-.25A.82.82,0,0,1,.18,5.6a.75.75,0,0,1,.1-.33s0,0,0,0a.89.89,0,0,1-.22-1A.59.59,0,0,1,.22,4c-.2-.11.12-.75.47-.65.06,0,.07.07.1.1s0,0,0,0a1,1,0,0,1,.28-.3,0,0,0,0,0,0-.06,1.31,1.31,0,0,1,0-.68A1.73,1.73,0,0,1,1.32,2a.78.78,0,0,1,.21-.23,1,1,0,0,1,.41-.2S2,1.5,2,1.46a1,1,0,0,1,.07-.15.29.29,0,0,1,.13-.14s.06,0,0-.1a.28.28,0,0,1,0-.09.48.48,0,0,1,0-.31L2.42.45c.13-.2.73,0,.77-.12A.65.65,0,0,1,4,0,.8.8,0,0,1,4.43.4l0,0"/></g></g></svg>