<svg xmlns="http://www.w3.org/2000/svg" viewBox="0 0 41.19 8.89"><defs><style>.cls-1{fill:#f6f6f6;}.cls-2{fill:#95c11f;}</style></defs><g id="Capa_2" data-name="Capa 2"><g id="Capa_1-2" data-name="Capa 1"><path class="cls-1" d="M6.17,1,5,2.18a1.41,1.41,0,0,0-1-.46,1.05,1.05,0,0,0-.91.61,4.44,4.44,0,0,0-.51,1.53A10.43,10.43,0,0,0,2.4,5.71a2,2,0,0,0,.2,1A.65.65,0,0,0,3.2,7a1.26,1.26,0,0,0,.59-.15,6.22,6.22,0,0,0,.7-.46L5.32,7.7A3.68,3.68,0,0,1,2.71,8.83,2.49,2.49,0,0,1,.73,8,3.56,3.56,0,0,1,0,5.57,8.34,8.34,0,0,1,.45,2.75a4.47,4.47,0,0,1,1.36-2A3.36,3.36,0,0,1,4,0,2.75,2.75,0,0,1,6.17,1Z"/><path class="cls-1" d="M12.31,3.18A8.77,8.77,0,0,1,11.88,6a4.65,4.65,0,0,1-1.31,2,3.18,3.18,0,0,1-2.18.77c-1.85,0-2.77-1.06-2.77-3.19A9.06,9.06,0,0,1,6,2.8a4.57,4.57,0,0,1,1.31-2A3.2,3.2,0,0,1,9.53,0C11.38,0,12.31,1.06,12.31,3.18ZM8.59,2.44a6.76,6.76,0,0,0-.47,1.78,13.85,13.85,0,0,0-.15,2,1.42,1.42,0,0,0,.14.75.44.44,0,0,0,.42.23q.49,0,.81-.72A6.46,6.46,0,0,0,9.8,4.69a13.68,13.68,0,0,0,.15-2,1.71,1.71,0,0,0-.14-.79.45.45,0,0,0-.43-.24C9.06,1.69,8.8,1.94,8.59,2.44Z"/><path class="cls-1" d="M18.17.3a3.14,3.14,0,0,1,1,.79L18,2.21a2.43,2.43,0,0,0-.57-.42,1.48,1.48,0,0,0-.61-.12c-.65,0-1.12.44-1.42,1.32A9.51,9.51,0,0,0,14.92,6a1.74,1.74,0,0,0,.15.84.49.49,0,0,0,.45.26,1.12,1.12,0,0,0,.66-.24l.22-1.58h-.57V3.71h2.95L18.22,7.9a5.13,5.13,0,0,1-1.39.68,4.81,4.81,0,0,1-1.43.24q-2.84,0-2.84-3.16a7.88,7.88,0,0,1,.5-2.84A4.75,4.75,0,0,1,14.52.76,3.55,3.55,0,0,1,16.81,0,3,3,0,0,1,18.17.3Z"/><path class="cls-1" d="M34,.8a2.15,2.15,0,0,1,.74,1.76,3.62,3.62,0,0,1-.41,1.75,2.94,2.94,0,0,1-1.19,1.18,3.7,3.7,0,0,1-1.81.42h-.36l-.37,2.64H28.22L29.4.2h2.37A3.41,3.41,0,0,1,34,.8Zm-1.87,3a2.53,2.53,0,0,0,.25-1.19A.87.87,0,0,0,32.17,2a.65.65,0,0,0-.52-.18h-.16l-.34,2.4h.11A.86.86,0,0,0,32.08,3.79Z"/><path class="cls-1" d="M40.37,6.1a3.11,3.11,0,0,1-1,1.93,3.17,3.17,0,0,1-2.21.75,2.81,2.81,0,0,1-2-.63,2.15,2.15,0,0,1-.67-1.65,3.59,3.59,0,0,1,0-.47L35.34.2h2.33l-.86,6.13s0,.12,0,.2c0,.36.17.54.49.54s.64-.25.71-.76L38.85.2h2.34Z"/><path class="cls-2" d="M25.75,1.13A.75.75,0,0,1,26,2a.69.69,0,0,1-.05.13s0,0,0,.05a.64.64,0,0,1,.35.26.59.59,0,0,1,.07.16c.29,0,.24,1.08.06,1.07a2,2,0,0,1,.22.64,1.58,1.58,0,0,1,.06.82c-.06.24,0,.34,0,.51A.75.75,0,0,1,26.6,6a1,1,0,0,1-.45.36,1.59,1.59,0,0,1-.41.12.08.08,0,0,0-.06,0,1.09,1.09,0,0,1-.17.32,1,1,0,0,1-.32.27,1.94,1.94,0,0,1-.36.15,1.92,1.92,0,0,1,.18.22c0,.08,0,.1,0,.17s0,0,0,.06.09.23.14.34a.22.22,0,0,1,0,.11c0,.08-.06.11-.13.07a1.67,1.67,0,0,1-.24-.16,0,0,0,0,0-.07,0,.08.08,0,0,1-.11,0,1.59,1.59,0,0,1-.29-.29s0,0-.06,0-.08,0-.13,0A.51.51,0,0,1,24,7.6a2.48,2.48,0,0,1-.13-.35s0,0,0,0-.08-.07-.08-.13a3.89,3.89,0,0,0,.05.76,5.07,5.07,0,0,0,.22.76.12.12,0,0,1,0,.16,1.13,1.13,0,0,1-.18.12c-.05,0-.09,0-.11-.06A5,5,0,0,1,23.53,8a4.14,4.14,0,0,1-.05-.79c0-.12,0-.24,0-.37h0c0,.18-.11.35-.16.53a2.44,2.44,0,0,1-.1.24s-.05.09-.11.08,0,0-.05,0a3.12,3.12,0,0,1-.15.39l0,.07a.09.09,0,0,1-.16,0s0,0-.05,0l-.23.3a.19.19,0,0,1-.11.07.07.07,0,0,1-.09-.09c0-.13.07-.26.1-.39l0,0s0-.07-.05-.07a.1.1,0,0,1-.07-.14,1.74,1.74,0,0,1,.11-.18l.17-.22s0,0,0-.07,0-.09,0-.15a1.92,1.92,0,0,1,.28-.29l-.14-.05a.58.58,0,0,1-.31-.2s-.05,0-.09,0a1,1,0,0,1-.48.09.85.85,0,0,1-.58-.25A.83.83,0,0,1,21,5.8a.68.68,0,0,1,.11-.33s0,0,0,0a.88.88,0,0,1-.21-1A.53.53,0,0,1,21,4.24c-.19-.11.13-.76.48-.65.05,0,.07.06.09.1s0,0,0,0a.92.92,0,0,1,.29-.3s0,0,0-.07a1.21,1.21,0,0,1,0-.68,1.69,1.69,0,0,1,.2-.46.87.87,0,0,1,.2-.23,1.09,1.09,0,0,1,.41-.19.08.08,0,0,0,.07-.07.94.94,0,0,1,.06-.15A.32.32,0,0,1,23,1.37c.05,0,.05-.05,0-.09a.16.16,0,0,1,0-.1.54.54,0,0,1,.06-.3l.13-.22c.14-.21.74-.05.78-.12a.63.63,0,0,1,.77-.3.79.79,0,0,1,.47.37l0,.05"/></g></g></svg>