<svg xmlns="http://www.w3.org/2000/svg" version="1.1" xmlns:xlink="http://www.w3.org/1999/xlink" xmlns:svgjs="http://svgjs.com/svgjs" width="512" height="512" x="0" y="0" viewBox="0 0 464.205 464.205" style="enable-background:new 0 0 512 512" xml:space="preserve" class="hovered-paths"><g><path d="M435.192 406.18H29.013C12.989 406.18 0 393.19 0 377.167s12.989-29.013 29.013-29.013h406.18c16.023 0 29.013 12.99 29.013 29.013-.001 16.023-12.99 29.013-29.014 29.013zM435.192 261.115H29.013C12.989 261.115 0 248.126 0 232.103s12.989-29.013 29.013-29.013h406.18c16.023 0 29.013 12.989 29.013 29.013s-12.99 29.012-29.014 29.012zM435.192 116.051H29.013C12.989 116.051 0 103.062 0 87.038s12.989-29.013 29.013-29.013h406.18c16.023 0 29.013 12.989 29.013 29.013s-12.99 29.013-29.014 29.013z" fill="#ffffff" data-original="#000000" class="hovered-path"></path></g></svg>